<svg id="Capa_1" enable-background="new 0 0 512 512" height="512" viewBox="0 0 512 512" width="512" xmlns="http://www.w3.org/2000/svg"><g><path d="m512 256c0-19.656-12.674-36.399-30.275-42.513-2.705-60.983-25.473-107.783-67.785-139.232-38.617-28.702-91.755-43.255-157.94-43.255s-119.323 14.553-157.94 43.256c-42.312 31.448-65.08 78.248-67.785 139.232-17.601 6.113-30.275 22.856-30.275 42.512 0 11.517 4.354 22.032 11.495 30-7.141 7.968-11.495 18.483-11.495 30 0 19.777 12.83 36.603 30.599 42.623 6.434 68.542 64.699 122.377 135.401 122.377h180c70.702 0 128.967-53.835 135.401-122.377 17.769-6.02 30.599-22.846 30.599-42.623 0-11.517-4.354-22.032-11.495-30 7.141-7.968 11.495-18.483 11.495-30zm-256-195c86.031 0 187.942 26.52 195.531 150h-391.062c7.589-123.48 109.5-150 195.531-150zm-211 180h422c8.271 0 15 6.729 15 15s-6.729 15-15 15h-422c-8.271 0-15-6.729-15-15s6.729-15 15-15zm301 210h-180c-53.307 0-97.543-39.183-104.914-90h13.914c10.028 0 13.197 3.411 19.509 10.208 7.758 8.353 18.383 19.792 41.491 19.792 23.271 0 33.619-11.556 41.175-19.994 5.966-6.662 8.96-10.006 18.825-10.006s12.859 3.344 18.825 10.006c7.556 8.438 17.904 19.994 41.175 19.994s33.619-11.556 41.175-19.994c5.966-6.662 8.96-10.006 18.825-10.006s12.859 3.344 18.825 10.006c7.556 8.438 17.904 19.994 41.175 19.994s33.619-11.556 41.175-19.994c5.966-6.662 8.96-10.006 18.825-10.006h14.914c-7.371 50.817-51.607 90-104.914 90zm121-120h-31c-23.271 0-33.619 11.556-41.175 19.994-5.966 6.662-8.96 10.006-18.825 10.006s-12.859-3.344-18.825-10.006c-7.556-8.438-17.904-19.994-41.175-19.994s-33.619 11.556-41.175 19.994c-5.966 6.662-8.96 10.006-18.825 10.006s-12.859-3.344-18.825-10.006c-7.556-8.438-17.904-19.994-41.175-19.994s-33.619 11.556-41.175 19.994c-5.966 6.662-8.96 10.006-18.825 10.006-10.028 0-13.197-3.411-19.509-10.208-7.758-8.353-18.383-19.792-41.491-19.792h-30c-8.271 0-15-6.729-15-15s6.729-15 15-15h422c8.271 0 15 6.729 15 15s-6.729 15-15 15z"/><circle cx="166" cy="166" r="15"/><circle cx="346" cy="166" r="15"/><circle cx="286" cy="136" r="15"/><circle cx="226" cy="106" r="15"/></g></svg>