<?xml version="1.0" encoding="iso-8859-1"?>
<!-- Generator: Adobe Illustrator 19.0.0, SVG Export Plug-In . SVG Version: 6.00 Build 0)  -->
<svg version="1.1" id="Capa_1" xmlns="http://www.w3.org/2000/svg" xmlns:xlink="http://www.w3.org/1999/xlink" x="0px" y="0px"
	 viewBox="0 0 512 512" style="enable-background:new 0 0 512 512;" xml:space="preserve">
<g>
	<g>
		<path d="M265.5,346c-5.52,0-10,4.48-10,10c0,5.52,4.48,10,10,10c5.52,0,10-4.48,10-10C275.5,350.48,271.02,346,265.5,346z"/>
	</g>
</g>
<g>
	<g>
		<path d="M231.626,337.238C209.343,324.859,195.5,301.394,195.5,276c0-5.523-4.477-10-10-10s-10,4.477-10,10
			c0,32.653,17.785,62.818,46.414,78.722c1.538,0.854,3.204,1.26,4.847,1.26c3.514,0,6.923-1.856,8.751-5.146
			C238.194,346.008,236.454,339.92,231.626,337.238z"/>
	</g>
</g>
<g>
	<g>
		<path d="M426,0H326c-4.891,0-9.064,3.538-9.865,8.363L300.93,100h-5.3c-2.07-25.514-12.915-49.214-31.071-67.503
			C243.942,11.72,216.312,0.188,186.735,0.011c-0.056-0.002-0.112-0.001-0.168-0.002c-0.023,0-0.045-0.003-0.068-0.003
			c-0.013,0-0.025,0.002-0.037,0.002C186.31,0.004,186.158,0,186,0c-29.501,0-57.24,11.739-78.102,33.05
			c-20.265,20.676-31.587,47.935-31.887,76.764c-0.001,0.025,0,0.049-0.001,0.074c0,0.038-0.006,0.074-0.006,0.112
			c0,0.026,0.004,0.051,0.004,0.076C76.004,110.385,76,110.695,76,111c0,29.381,11.442,57.004,32.219,77.781
			c0,0,0.001,0,0.001,0.001c10.293,10.294,22.629,18.485,36.023,23.995c-1.537,5.415-2.862,10.725-3.972,16.047
			c-3.091,14.783-4.648,29.618-4.76,45.258c-0.011,0.636-0.011,1.283-0.011,1.918c0,34.732,13.524,67.377,38.077,91.919
			c17.313,17.321,38.66,29.144,61.923,34.613V492h-70c-5.523,0-10,4.478-10,10c0,5.522,4.477,10,10,10h200c5.523,0,10-4.478,10-10
			c0-5.522-4.477-10-10-10h-70v-89.5c57.267-13.58,100-65.14,100-126.5v-0.76c-0.04-13.523-1.316-28.701-3.583-43.074
			c0.045-0.383,0.074-0.771,0.074-1.167c0-1.541-0.359-2.995-0.981-4.298c-1.794-10.115-4.028-19.421-6.661-27.676l-29.32-92.06
			c-1.321-4.148-5.174-6.965-9.528-6.965h-24.297l13.274-80H426c5.523,0,10-4.477,10-10S431.523,0,426,0z M275.548,100h-64.034
			l45.526-45.85C267.476,67.357,273.87,83.157,275.548,100z M196.5,20.61c17.159,1.927,33.168,8.584,46.47,19.325L196.5,86.734
			V20.61z M192.935,120h104.676l-16.759,101H162.713c0.901-3.336,1.884-6.707,2.985-10.165c0.019-0.058,0.036-0.117,0.054-0.175
			L192.935,120z M176.5,20.515v66.842l-47.004-47.004C143.029,29.199,159.236,22.355,176.5,20.515z M115.519,54.662L160.857,100
			H96.684C98.679,83.434,105.162,67.827,115.519,54.662z M96.443,120h66.795c-0.645,0.399-1.259,0.87-1.819,1.43l-45.729,45.737
			C104.806,153.596,98.153,137.332,96.443,120z M129.831,181.31l34.053-34.06l-13.87,46.256
			C142.808,190.353,136.003,186.24,129.831,181.31z M275.5,492h-20v-86h20V492z M375.501,275.27V276H375.5
			c0,60.654-49.346,110-110,110c-29.388,0-57.01-11.442-77.781-32.223C166.942,333.01,155.5,305.388,155.5,276
			c0-0.524,0-1.058,0.01-1.678c0.083-11.519,1.024-22.491,2.834-33.322h130.963c0.012,0,0.024,0.001,0.036,0.001
			c0.011,0,0.022-0.001,0.033-0.001h83.627C374.585,252.624,375.469,264.536,375.501,275.27z M338.19,120l27.103,85.099
			c1.532,4.802,2.949,10.183,4.205,15.901h-68.371l16.759-101H338.19z"/>
	</g>
</g>
<g>
</g>
<g>
</g>
<g>
</g>
<g>
</g>
<g>
</g>
<g>
</g>
<g>
</g>
<g>
</g>
<g>
</g>
<g>
</g>
<g>
</g>
<g>
</g>
<g>
</g>
<g>
</g>
<g>
</g>
</svg>
