<svg width="512" height="512" viewBox="0 0 512 512" fill="none" xmlns="http://www.w3.org/2000/svg">
<g clip-path="url(#clip0)">
<path d="M505.143 398.629L480.06 354.176C477.401 349.463 472.409 346.548 466.997 346.548L45.005 346.548C39.593 346.548 34.601 349.463 31.942 354.176L6.85801 398.629C-0.0359895 410.846 -1.422 425.476 3.051 438.766C7.516 452.03 17.445 462.818 30.29 468.366C96.392 496.912 174.441 512 256 512C337.559 512 415.609 496.912 481.71 468.367C494.557 462.819 504.486 452.03 508.95 438.766C513.424 425.475 512.036 410.846 505.143 398.629V398.629Z" fill="#FFC355"/>
<path d="M30.289 468.367C17.443 462.819 7.51499 452.031 3.04999 438.767C-1.424 425.476 -0.0369966 410.847 6.857 398.63L31.941 354.177C34.6 349.464 39.592 346.549 45.004 346.549L256 346.549L256 512C174.44 512 96.392 496.912 30.289 468.367V468.367Z" fill="#FFA500"/>
<path d="M474.423 374.581C414.079 408.967 336.508 427.904 256 427.904C175.491 427.904 97.921 408.967 37.577 374.581C30.401 370.492 27.881 361.37 31.94 354.177L219.938 21.0128C227.362 7.8548 240.844 -0.000204188 256 -0.000202863C271.156 -0.000201538 284.638 7.8548 292.063 21.0128L480.06 354.177C484.119 361.37 481.599 370.492 474.423 374.581V374.581Z" fill="#FFE377"/>
<path d="M37.577 374.581C30.401 370.492 27.881 361.37 31.94 354.177L219.938 21.0128C227.363 7.85481 240.844 -0.00018443 256 -0.000183105L256 427.904C175.491 427.904 97.921 408.967 37.577 374.581V374.581Z" fill="#FFCC00"/>
<path d="M364.129 351C400.592 351 430.257 321.486 430.257 285.209C430.257 248.932 400.592 219.418 364.129 219.418C327.665 219.418 298 248.932 298 285.209C298 321.486 327.665 351 364.129 351V351Z" fill="#D70013"/>
<path d="M223.871 242.582C260.335 242.582 290 213.068 290 176.791C290 140.514 260.335 111 223.871 111C187.408 111 157.743 140.514 157.743 176.791C157.743 213.068 187.408 242.582 223.871 242.582Z" fill="#D70013"/>
<path d="M212.313 278.582C180.66 278.582 155 304.117 155 335.616C155 367.115 180.66 392.65 212.313 392.65C243.966 392.65 269.626 367.115 269.626 335.616C269.626 304.117 243.966 278.582 212.313 278.582Z" fill="#D70013"/>
<path d="M223.871 242.582C235.527 242.582 246.481 239.555 256 234.267L256 119.316C246.48 114.028 235.527 111.001 223.871 111.001C187.408 111.001 157.743 140.515 157.743 176.792C157.743 213.068 187.408 242.582 223.871 242.582V242.582Z" fill="#9E000E"/>
<path d="M212.313 278.582C180.71 278.582 155 304.167 155 335.616C155 367.065 180.711 392.65 212.313 392.65C229.803 392.65 245.479 384.804 256 372.474L256 298.757C245.479 286.427 229.803 278.582 212.313 278.582Z" fill="#9E000E"/>
</g>
<defs>
<clipPath id="clip0">
<rect width="512" height="512" fill="white" transform="translate(512 512) rotate(-180)"/>
</clipPath>
</defs>
</svg>
