<svg height="512" viewBox="0 0 512 512" width="512" xmlns="http://www.w3.org/2000/svg"><g id="outline"><path d="m269.9 263.961a40 40 0 0 0 -78.689 14.427l1.8 9.836a14.023 14.023 0 0 0 13.77 11.476c.4 0 .795-.019 1.195-.054l-.133 8.3a20 20 0 0 0 19.969 20.325 20.142 20.142 0 0 0 3.634-.331l18.419-3.376a20 20 0 0 0 14.976-27.064l-3.071-7.718a14.017 14.017 0 0 0 9.935-15.986zm-59.1-6.418a24 24 0 0 1 43.359 9.3l1.442 7.87-47.212 8.655-1.443-7.87a23.838 23.838 0 0 1 3.859-17.955zm38.953 49.29a3.946 3.946 0 0 1 -2.779 2l-18.418 3.376a4 4 0 0 1 -4.72-4l.183-11.436 21.722-3.982 4.229 10.626a3.943 3.943 0 0 1 -.212 3.416z"/><path d="m343.873 221.87a35.466 35.466 0 0 0 -49.507 7.7l-5.056 6.919a13.144 13.144 0 0 0 .971 16.69l-4.356 4a18.285 18.285 0 0 0 1.571 28.238l12.959 9.47a18.287 18.287 0 0 0 27.382-7.08l2.487-5.371a13 13 0 0 0 5.554 1.254 13.368 13.368 0 0 0 2.048-.159 13.058 13.058 0 0 0 8.591-5.232l5.057-6.921a35.466 35.466 0 0 0 -7.701-49.508zm-30.556 59.211a2.285 2.285 0 0 1 -3.421.886l-12.959-9.47a2.285 2.285 0 0 1 -.2-3.529l6.534-5.994 13.768 10.062zm25.339-19.145-3.372 4.614-31.371-22.926 3.371-4.613a19.428 19.428 0 0 1 31.372 22.925z"/><path d="m168.426 281.1a16 16 0 0 0 -20.8-8.914l-25.569 10.228a16.02 16.02 0 0 0 -9.237 19.916l5.616 16.844a8 8 0 0 0 7.589 5.469h48a8 8 0 0 0 7.428-10.971zm-36.633 27.543-3.793-11.37 25.569-10.226 8.641 21.6z"/><path d="m152 263.044a24 24 0 1 0 -24-24 24.028 24.028 0 0 0 24 24zm0-32a8 8 0 1 1 -8 8 8.009 8.009 0 0 1 8-8z"/><path d="m481.086 179.756a26.793 26.793 0 0 0 -33.712-12.817l-3.891 1.556a77.938 77.938 0 0 0 -35.965 29.128l-1.3 1.946c-15.88-15.748-38.422-29.1-65.917-38.927-32.211-11.513-69.66-17.6-108.3-17.6-52.593 0-102.161 11.161-139.575 31.427-38.967 21.108-60.426 49.722-60.426 80.575a66.348 66.348 0 0 0 2.564 18.192c0 .01.008.018.011.028a76.892 76.892 0 0 0 9.863 21.145 8.131 8.131 0 0 0 .158 1.237 191.3 191.3 0 0 0 99.404 129.965v18.989a20.8 20.8 0 0 0 16.675 20.341 361.857 361.857 0 0 0 142.65 0 20.8 20.8 0 0 0 16.675-20.341v-18.987a191.337 191.337 0 0 0 99.65-131.13c.02-.092.028-.185.044-.277a76.8 76.8 0 0 0 9.74-20.97 8 8 0 0 0 -4.093-9.332l21.315-29.332a62.507 62.507 0 0 1 22.52-19.084 26.665 26.665 0 0 0 11.91-35.732zm-120.143 95.056a8 8 0 0 0 7.057 4.232h42.034c-20.985 41.695-94.287 72-178.034 72-89.021 0-166.246-34.235-181.372-80 15.126-45.765 92.351-80 181.372-80 60.6 0 117.023 15.726 151.7 42.157l-22.351 33.393a8 8 0 0 0 -.406 8.218zm-260.9-86.273c35.114-19.02 81.976-29.495 131.954-29.495 70.126 0 133.946 21.088 165.121 54.112l-4.5 6.72c-37.461-28.126-97.1-44.832-160.623-44.832-80.033 0-149.662 25.83-181.534 64.483 6.058-18.954 23.139-36.661 49.585-50.988zm203.957 256.061a4.756 4.756 0 0 1 -3.813 4.651 345.9 345.9 0 0 1 -136.374 0 4.756 4.756 0 0 1 -3.813-4.651v-11.634a191.188 191.188 0 0 0 144 0zm38.893-52.973a175.65 175.65 0 0 1 -274.143-71.4c36.35 28.654 96.142 46.817 163.25 46.817s126.9-18.164 163.253-46.818a176.247 176.247 0 0 1 -52.36 71.398zm119.128-190.449a78.572 78.572 0 0 0 -28.308 23.988l-27.525 37.878h-23.207l30.877-46.129c.035-.052.071-.1.1-.155l6.852-10.238a61.993 61.993 0 0 1 28.612-23.171l3.889-1.556a10.633 10.633 0 0 1 8.706 19.383z"/><path d="m220 119.044a8 8 0 0 0 16 0c0-3.578.888-4.91 2.656-7.564 2.256-3.38 5.344-8.015 5.344-16.437s-3.089-13.056-5.344-16.439c-1.768-2.653-2.656-3.984-2.656-7.562s.888-4.908 2.656-7.562c2.255-3.38 5.344-8.014 5.344-16.436a8 8 0 1 0 -16 0c0 3.577-.888 4.908-2.656 7.561-2.255 3.382-5.344 8.015-5.344 16.437s3.088 13.055 5.344 16.437c1.768 2.654 2.656 3.986 2.656 7.564s-.888 4.909-2.656 7.562c-2.255 3.383-5.344 8.016-5.344 16.439z"/><path d="m164 127.044a8 8 0 1 0 16 0c0-3.578.888-4.91 2.656-7.564 2.256-3.382 5.344-8.015 5.344-16.437s-3.089-13.056-5.344-16.439c-1.768-2.653-2.656-3.984-2.656-7.562s.888-4.908 2.656-7.562c2.255-3.38 5.344-8.014 5.344-16.436a8 8 0 1 0 -16 0c0 3.577-.888 4.908-2.656 7.561-2.255 3.382-5.344 8.015-5.344 16.437s3.088 13.055 5.344 16.437c1.768 2.654 2.656 3.986 2.656 7.564s-.888 4.909-2.656 7.562c-2.255 3.383-5.344 8.016-5.344 16.439z"/><path d="m276 127.044a8 8 0 1 0 16 0c0-3.578.888-4.91 2.656-7.564 2.256-3.382 5.344-8.015 5.344-16.437s-3.089-13.056-5.344-16.439c-1.768-2.653-2.656-3.984-2.656-7.562s.888-4.908 2.656-7.562c2.255-3.38 5.344-8.014 5.344-16.436a8 8 0 1 0 -16 0c0 3.577-.888 4.908-2.656 7.561-2.255 3.382-5.344 8.015-5.344 16.437s3.088 13.055 5.344 16.437c1.768 2.654 2.656 3.986 2.656 7.564s-.888 4.909-2.656 7.562c-2.255 3.383-5.344 8.016-5.344 16.439z"/></g></svg>