<?xml version="1.0" standalone="no"?>
<!DOCTYPE svg PUBLIC "-//W3C//DTD SVG 20010904//EN"
 "http://www.w3.org/TR/2001/REC-SVG-20010904/DTD/svg10.dtd">
<svg version="1.0" xmlns="http://www.w3.org/2000/svg"
 width="512.000000pt" height="512.000000pt" viewBox="0 0 512.000000 512.000000"
 preserveAspectRatio="xMidYMid meet">
<metadata>
Created by potrace 1.14, written by Peter Selinger 2001-2017
</metadata>
<g transform="translate(0.000000,512.000000) scale(0.100000,-0.100000)"
fill="#000000" stroke="none">
<path d="M1465 5103 c-76 -27 -133 -80 -173 -163 -51 -108 -24 -247 66 -334
20 -20 45 -39 55 -42 10 -3 16 -11 13 -17 -2 -7 -28 -82 -56 -167 -28 -85 -55
-164 -60 -175 -5 -11 -37 -103 -71 -205 -167 -497 -650 -1927 -678 -2005 -27
-76 -26 -100 3 -130 l25 -25 -31 -90 c-23 -69 -34 -90 -47 -89 -31 5 -61 -12
-75 -44 -8 -18 -44 -120 -80 -227 -36 -107 -131 -388 -210 -624 -132 -390
-145 -434 -142 -490 5 -144 111 -255 257 -272 56 -6 129 9 241 51 20 8 104 37
185 64 81 27 416 140 743 251 327 111 633 214 680 230 47 16 366 124 710 240
344 117 636 215 650 220 14 4 264 89 557 188 478 162 533 178 538 162 3 -10
26 -37 51 -60 123 -113 300 -111 416 6 94 94 105 186 49 404 -21 80 -50 183
-66 230 -16 47 -30 87 -30 90 -1 3 -5 14 -10 25 -4 11 -25 65 -47 120 -68 174
-219 472 -316 625 -113 178 -297 439 -366 518 -13 15 -51 60 -85 101 -149 179
-377 413 -592 607 -28 25 -150 127 -254 213 -11 9 -60 45 -110 81 -49 36 -92
67 -95 71 -22 26 -348 227 -484 298 -55 29 -105 55 -110 59 -33 21 -262 120
-406 175 -86 33 -313 102 -355 108 -2 0 -28 7 -57 16 -72 20 -184 23 -233 6z"/>
</g>
</svg>
